<?xml version="1.0" encoding="UTF-8" standalone="no"?>
<svg
   xmlns:dc="http://purl.org/dc/elements/1.1/"
   xmlns:cc="http://creativecommons.org/ns#"
   xmlns:rdf="http://www.w3.org/1999/02/22-rdf-syntax-ns#"
   xmlns:svg="http://www.w3.org/2000/svg"
   xmlns="http://www.w3.org/2000/svg"
   id="svg8"
   version="1.1"
   viewBox="0 0 80.317635 61.868477"
   height="61.868477mm"
   width="80.317635mm">
  <defs
     id="defs2" />
  <metadata
     id="metadata5">
    <rdf:RDF>
      <cc:Work
         rdf:about="">
        <dc:format>image/svg+xml</dc:format>
        <dc:type
           rdf:resource="http://purl.org/dc/dcmitype/StillImage" />
        <dc:title></dc:title>
      </cc:Work>
    </rdf:RDF>
  </metadata>
  <g
     transform="translate(-10.97083,-45.310411)"
     id="layer1">
    <path
       id="path826"
       transform="scale(0.26458333)"
       d="m 64.292969,171.25195 c -3.634798,0 -6.129284,5.44242 -5.242188,11.4375 0.401764,2.71505 0.492611,5.32143 0.201172,5.79297 -0.291424,0.47154 -0.09355,1.3991 0.439453,2.0625 0.533008,0.66341 0.991185,8.43912 1.019532,17.2793 l 0.05273,16.07422 -2.935547,1.73242 c -1.613994,0.95342 -2.933594,2.10099 -2.933594,2.54883 0,0.44787 -2.890325,3.00982 -6.423828,5.69336 -3.94114,2.99308 -6.605837,5.8049 -6.890625,7.27343 -1.089551,5.61854 5.764382,13.89342 10.605469,12.80469 1.214479,-0.27314 4.008986,0.0341 6.208984,0.68164 l 4,1.17578 1.080078,10.47266 c 1.495862,14.50224 1.009313,15.82528 -7.146484,19.46289 -6.818177,3.04101 -8.433594,4.71033 -8.433594,8.71875 0,4.97941 5.545373,8.78461 8.550781,5.86719 0.522501,-0.50721 2.572907,-1.21964 4.556641,-1.58399 l 3.605469,-0.66211 0.632812,9.33399 c 0.348231,5.13392 0.642517,13.83398 0.652344,19.33398 0.0099,5.49997 0.389802,13.59999 0.845703,18 0.455883,4.39998 0.716052,9.57277 0.576172,11.4961 -0.139858,1.92332 0.221695,4.07292 0.804688,4.77539 0.582962,0.70246 0.823987,1.51398 0.535156,1.80273 -0.6945,0.69453 0.96568,8.31959 2.4375,11.19531 0.865334,1.69112 0.873277,2.56033 0.0293,3.4043 -0.683989,0.68397 -0.800378,1.76455 -0.292969,2.72852 0.46227,0.87825 1.101825,3.50573 1.421875,5.83789 0.95972,6.99303 3.720759,15.336 5.744141,17.35937 2.914049,2.91406 4.773941,2.33222 9.90039,-3.09961 2.59539,-2.74998 5.380094,-5 6.189453,-5 2.312584,0 4.450859,-4.74529 3.107422,-6.89648 -0.90322,-1.44631 -0.652768,-2.11295 1.363282,-3.62695 1.358819,-1.02044 3.067103,-3.23273 3.794923,-4.91602 0.72783,-1.68333 2.83507,-4.6889 4.68359,-6.67969 1.84852,-1.99083 5.38633,-6.21208 7.86133,-9.3789 2.475,-3.16683 5.23628,-6.54784 6.13672,-7.51563 0.90044,-0.96778 2.02543,-2.45472 2.5,-3.30273 0.47457,-0.84798 6.48829,-7.49118 13.36328,-14.76367 6.875,-7.2725 12.41561,-13.35298 12.3125,-13.51172 -0.1031,-0.15859 1.8094,-2.37268 4.25,-4.91993 2.4406,-2.54721 4.4375,-5.24353 4.4375,-5.99218 0,-0.74869 0.7875,-1.62733 1.75,-1.95313 2.22528,-0.75284 8.25,-8.70591 8.25,-10.89062 0,-0.90868 0.62303,-1.65235 1.38477,-1.65235 2.0707,0 7.46323,-8.41736 7.52343,-11.74414 0.0175,-0.96514 0.313,-3.15827 0.65625,-4.87304 1.17064,-5.8478 -6.15727,-15.38282 -11.82226,-15.38282 -1.54678,0 -3.94064,-0.73792 -5.31836,-1.64062 -2.0362,-1.3341 -3.9477,-1.51642 -10.21484,-0.97266 -20.56813,1.78451 -22.20899,1.84047 -22.20899,0.76758 0,-0.59641 0.97409,-1.60623 2.16602,-2.24414 3.67157,-1.96498 24.63639,-19.06184 31.08398,-25.34961 2.0625,-2.01139 3.75,-4.27955 3.75,-5.04102 0,-0.76146 0.82501,-1.64667 1.83399,-1.96679 3.51175,-1.11459 8.49465,-8.2701 8.91601,-12.80274 0.2173,-2.33747 1.0496,-4.97251 1.84766,-5.85547 1.87244,-2.07163 1.00264,-4.20004 -2.93555,-7.19336 -7.75042,-5.89091 -9.03925,-6.20217 -25.66211,-6.18554 -13.83704,0.0139 -16.14373,0.26596 -21.5,2.34961 -6.5376,2.54319 -9.88112,3.39041 -22,5.58008 -4.4,0.795 -10.25,2.58114 -13,3.96875 -2.749999,1.3876 -6.125,2.55198 -7.5,2.58789 -1.374999,0.0359 -4.290848,0.91204 -6.480469,1.94726 -2.189631,1.03523 -4.293849,1.69189 -4.673828,1.45703 -0.694201,-0.42903 -0.08207,-11.21612 0.708985,-12.49609 0.23263,-0.37639 -0.237532,-1.23227 -1.044922,-1.90234 -1.041782,-0.8646 -1.193416,-1.73083 -0.521485,-2.98633 1.091649,-2.03978 -1.491552,-5.02149 -4.351562,-5.02149 -2.937388,0 -0.01998,-3.84347 3.636719,-4.79101 3.50112,-0.90723 3.50703,-0.92445 2.30664,-6.49414 -0.591341,-2.74376 -1.631485,-4.20768 -3.779297,-5.31836 -1.699899,-0.87905 -2.749428,-2.08996 -2.460937,-2.8418 0.68612,-1.78798 -1.272247,-3.55469 -3.941406,-3.55469 z m 12.601562,23 c -0.55,0 -1,0.45 -1,1 0,0.55 0.45,1 1,1 0.549997,0 1,-0.45 1,-1 0,-0.55 -0.450003,-1 -1,-1 z m 76.195309,17.00391 c 4.09129,0.13115 10.8003,2.21994 10.80274,3.76562 0.003,2.19074 -4.83487,9.04387 -6.83203,9.67774 -1.04948,0.33309 -2.97845,2.05515 -4.28711,3.82812 -1.30867,1.77298 -3.85347,4.57455 -5.65625,6.22461 -1.80279,1.65003 -5.51744,5.13752 -8.25391,7.75 -2.73647,2.61249 -5.37583,4.75 -5.86523,4.75 -0.48941,0 -1.14619,0.66729 -1.45899,1.48243 -0.66525,1.73363 -13.25924,10.00251 -19.35351,12.70703 -2.31473,1.0272 -4.45572,2.26705 -4.75782,2.75586 -0.58047,0.93921 -10.42417,5.87464 -21.921871,10.99023 -3.788568,1.68563 -6.938582,3.05639 -7,3.04883 -2.365598,-0.32432 -2.930354,-2.77568 -3.125,-13.55274 -0.246568,-13.65191 0.06153,-15.43164 2.669922,-15.43164 1.571467,0 1.692119,-0.24688 0.660157,-1.35156 -0.694458,-0.74343 -1.949343,-1.30594 -2.789063,-1.25 -1.23329,0.0821 -1.527344,-1.24396 -1.527344,-6.89844 v -7 l 5,-2.41211 c 2.75,-1.32669 5.675001,-2.7899 6.5,-3.25195 7.058022,-3.95293 14.124879,-6.98832 17.478519,-7.50781 2.21204,-0.34265 4.90926,-1.23278 5.99414,-1.97656 1.08487,-0.7438 4.16288,-1.35157 6.83984,-1.35157 3.66485,0 5.27719,-0.49731 6.52735,-2.01562 1.40506,-1.70647 2.16513,-1.86938 4.94921,-1.0586 2.33929,0.68123 4.36774,0.57693 7.02149,-0.35937 2.09545,-0.73931 5.9158,-1.11661 8.71094,-0.85938 2.738,0.25197 6.05565,0.0506 7.37304,-0.44921 0.55066,-0.20894 1.35664,-0.28418 2.30078,-0.25391 z m 151.80469,10.56836 c -11.10291,0.10625 -13.79269,0.54191 -15.58594,2.52344 -0.89178,0.98539 -2.82046,2.05336 -4.28515,2.375 -3.82588,0.84026 -15.64924,12.54495 -17.09375,16.92187 -0.65466,1.98361 -1.60595,3.60742 -2.11328,3.60742 -0.50736,0 -0.92188,0.57536 -0.92188,1.2793 0,0.70401 -1.575,2.76631 -3.5,4.58203 -1.925,1.81569 -3.55621,4.16542 -3.625,5.2207 -0.0687,1.05532 -0.18121,3.28502 -0.25,4.95508 -0.0687,1.6701 -0.72425,3.40648 -1.45703,3.85938 -0.84124,0.51991 -1.4546,3.36235 -1.66406,7.71289 -0.18246,3.78954 -1.06885,9.36564 -1.96875,12.39062 -0.89989,3.02502 -1.85217,7.29998 -2.11719,9.5 -0.26501,2.19999 -0.90127,5.12501 -1.41211,6.5 -3.49445,9.40589 -4.43605,37.86689 -1.57227,47.5 0.98105,3.29998 2.18362,6.78128 2.67383,7.73633 0.49022,0.95501 0.89258,2.35434 0.89258,3.10938 0,2.41092 8.02038,10.5835 12.33399,12.56836 5.25984,2.42029 12.1456,2.7773 11.30468,0.58593 -0.31658,-0.82499 -0.14015,-1.5 0.39258,-1.5 0.53274,0 0.96875,0.45001 0.96875,1 0,0.55004 0.9,1 2,1 1.23226,0 2.00656,-0.67177 2.01563,-1.75 0.0122,-1.39105 0.19523,-1.46636 0.89257,-0.36523 0.54905,0.86698 1.76325,1.1633 3.2461,0.79101 2.75206,-0.69074 13.19669,-9.29539 13.66015,-11.2539 0.17285,-0.73047 1.21856,-1.61568 2.32422,-1.9668 1.10566,-0.35093 2.83249,-2.55684 3.83789,-4.90234 1.00541,-2.3455 2.49051,-4.51903 3.30079,-4.83008 1.57233,-0.60336 7.72265,-9.18301 7.72265,-10.77344 0,-0.52244 0.3856,-0.94922 0.85742,-0.94922 0.47184,0 2.52367,-2.70002 4.56055,-6 2.03687,-3.30002 4.09693,-6 4.57617,-6 0.47923,0 1.18414,-1.0125 1.56836,-2.25 0.38422,-1.23753 1.57143,-3.48751 2.63672,-5 1.06529,-1.51249 1.65878,-2.75 1.31836,-2.75 -0.34044,0 0.4773,-1.46251 1.81836,-3.25 2.59566,-3.45978 7.64642,-13.99149 7.6875,-16.02929 0.0135,-0.67121 0.92775,-3.91926 2.03125,-7.21875 2.91101,-8.70395 4.00522,-25.20079 2.19726,-33.14063 -0.51822,-2.2758 -2.30474,-6.35036 -3.96875,-9.05469 -1.66399,-2.70436 -3.35156,-5.94384 -3.75,-7.19921 -1.14932,-3.62117 -11.94025,-13.47959 -18.25976,-16.68165 -4.92104,-2.49348 -6.88057,-2.9147 -13.27344,-2.85351 z m -91.98047,9.42773 c -5.1693,0 -8.26424,5.91951 -9.66992,18.5 -0.30727,2.74999 -0.93679,5.23506 -1.39844,5.52344 -0.46165,0.28819 -0.97589,4.89111 -1.14453,10.22852 -0.2179,6.89665 -0.68977,9.8561 -1.63086,10.22461 -0.94052,0.36839 -1.30113,2.62014 -1.24414,7.77148 0.0795,7.17974 -0.2433,13.91686 -1.6875,35.25195 -0.40934,6.05001 -0.42201,19.54999 -0.0273,30 0.39467,10.45002 0.73507,20.04285 0.75586,21.31836 0.0208,1.27556 0.82371,3.39905 1.7832,4.71875 0.95949,1.31966 2.55994,2.41275 3.55859,2.43164 2.59199,0.0449 5.68555,-1.80273 5.68555,-3.39648 0,-0.7468 0.60701,-1.59198 1.34961,-1.87695 0.74354,-0.28532 1.61957,-2.69076 1.94922,-5.35547 0.32925,-2.6614 0.89926,-6.28703 1.26758,-8.05664 0.57944,-2.78389 0.33214,-3.37239 -1.83399,-4.35938 l -2.5039,-1.14062 0.32812,-21.64063 c 0.17973,-11.90302 0.58427,-25.24256 0.90039,-29.64258 0.31611,-4.39997 0.79335,-12.27499 1.0586,-17.5 0.51061,-10.05849 1.21589,-14 2.50586,-14 0.43355,0 0.54083,-1.84586 0.23828,-4.10156 -0.37953,-2.82958 -0.13897,-4.35629 0.77929,-4.92383 1.02519,-0.6336 1.06352,-1.14473 0.16407,-2.22851 -0.91489,-1.10238 -0.73845,-1.86831 0.81445,-3.53516 1.09009,-1.1701 1.98242,-2.73076 1.98242,-3.46875 0,-0.73799 0.52679,-1.87053 1.17188,-2.51562 0.86106,-0.86106 0.88625,-1.80164 0.0937,-3.54102 -0.65351,-1.43426 -0.72708,-2.92502 -0.1875,-3.77734 1.44218,-2.27811 1.05103,-7.10721 -0.73438,-9.08008 -0.91024,-1.00581 -2.85533,-1.82813 -4.32422,-1.82813 z m 88.89844,4.48828 c 3.68457,-0.0785 5.65059,0.50171 9.70312,2.57422 3.05929,1.56458 6.56006,3.87762 7.7793,5.14063 1.21924,1.263 3.38423,3.26785 4.81055,4.45508 2.70894,2.25482 4.36821,6.97806 7.14453,20.34179 1.5445,7.43437 1.63055,12.59508 0.24805,14.83203 -0.39455,0.6384 -0.90311,2.1279 -1.13086,3.31055 -0.85063,4.41698 -2.66022,8.85742 -3.60938,8.85742 -0.5398,0 -0.72956,0.40838 -0.42187,0.90625 0.30771,0.49788 -1.69116,4.72757 -4.44141,9.40039 -2.75025,4.67278 -5,9.40709 -5,10.52149 0,1.11443 -1.04215,2.84716 -2.31445,3.84961 -1.2723,1.0024 -3.58481,3.99571 -5.14063,6.65234 -1.55583,2.65663 -3.67782,5.35661 -4.71484,6 -1.03701,0.64335 -2.76382,2.98146 -3.83789,5.19531 -1.07407,2.21386 -4.48979,6.71389 -7.58984,10 -3.10006,3.28615 -6.31078,6.98712 -7.13477,8.22461 -0.82399,1.2375 -1.93712,2.25 -2.47461,2.25 -0.53749,0 -2.12111,0.90001 -3.51953,2 -2.4243,1.90696 -9.26607,2.82856 -9.2793,1.25 -0.003,-0.41249 -1.27074,-1.46779 -2.81445,-2.3457 -1.54372,-0.87791 -3.57701,-3.22081 -4.51953,-5.20703 -0.94252,-1.98618 -2.09931,-3.8496 -2.57031,-4.14063 -1.84084,-1.13767 -2.86812,-20.06509 -1.68555,-31.05664 0.6337,-5.88997 1.96263,-12.14294 2.80469,-13.20117 0.52607,-0.66111 0.66746,-2.11237 0.31445,-3.22461 -0.35301,-1.11224 0.0369,-4.39717 0.86719,-7.29883 0.83033,-2.90165 2.04457,-7.42412 2.69726,-10.05078 0.65269,-2.62669 1.57428,-5.0153 2.04883,-5.30859 0.47456,-0.29329 0.86328,-1.42703 0.86328,-2.51758 0,-1.09054 0.8457,-2.89085 1.88086,-4.00195 1.03516,-1.11115 2.15292,-3.70687 2.48242,-5.76758 1.20318,-7.52421 4.7594,-12.47583 9.03711,-12.58203 1.04537,-0.026 2.0208,-0.85593 2.16797,-1.84375 0.14719,-0.98782 1.15066,-3.58119 2.23047,-5.76367 1.07981,-2.18249 1.56643,-4.2132 1.08008,-4.51368 -1.45091,-0.89673 1.03787,-4.4428 3.875,-5.52148 1.44757,-0.55034 5.25824,-1.15553 8.46875,-1.34375 0.60755,-0.0357 1.16894,-0.061 1.69531,-0.0723 z m -239.859375,4.51172 c 0.582448,0 0.781337,0.45001 0.441406,1 -0.339919,0.55 -0.816061,1 -1.058593,1 -0.242555,0 -0.441407,-0.45 -0.441407,-1 0,-0.54999 0.476135,-1 1.058594,-1 z m 88.578125,36.27149 c 0.5506,-0.0219 1.29911,0.25974 1.89453,0.7539 0.7939,0.66059 2.0909,0.95036 2.88281,0.64649 2.47723,-0.95063 7.17773,1.51008 8.47266,4.43555 1.09268,2.46852 0.96419,3.1941 -1.07422,6.09765 -1.2725,1.81259 -2.65,3.4456 -3.0625,3.62891 -0.4125,0.18334 -0.75567,0.85835 -0.76172,1.5 -0.006,0.64165 -1.91836,3.30185 -4.25,5.91211 -2.33163,2.61021 -5.58828,6.3661 -7.23828,8.3457 -1.65,1.97953 -4.0125,4.53673 -5.25,5.68359 -1.2375,1.14686 -2.25,2.67848 -2.25,3.4043 0,0.72582 -0.49528,1.32031 -1.09961,1.32031 -1.33102,0 -3.99802,2.81051 -18.03515,19 -5.96099,6.875 -12.82301,14.6093 -15.24805,17.1875 -2.42504,2.57821 -4.18935,4.90624 -3.92188,5.17383 0.77887,0.77885 -7.820328,9.65248 -10.894528,11.24219 -1.54103,0.79691 -2.814645,1.99851 -2.832031,2.67187 -0.0175,0.6734 -0.6925,2.09838 -1.5,3.16602 -1.410712,1.86511 -1.46875,1.83762 -1.46875,-0.69141 0,-1.44767 -0.478721,-2.92698 -1.064453,-3.28906 -0.58574,-0.362 -0.940067,-1.85225 -0.787109,-3.31055 0.152961,-1.45829 -0.02291,-3.13744 -0.390625,-3.73242 -0.367703,-0.59493 -1.182907,-6.22028 -1.810547,-12.5 -0.627628,-6.27972 -1.435527,-11.64282 -1.794922,-11.91797 -0.35941,-0.275 -0.658079,-5.44999 -0.666016,-11.5 -0.0076,-6.05 -0.218507,-17.00213 -0.46875,-24.33789 -0.525516,-15.40641 -1.026885,-14.55669 9.925782,-16.85351 12.790349,-2.68218 15.105679,-3.26535 17.003909,-4.28125 1.05597,-0.56516 3.47475,-1.02735 5.37304,-1.02735 1.89829,0 4.73909,-0.67254 6.31446,-1.49414 1.57537,-0.82163 3.68102,-1.49701 4.67968,-1.5 0.99867,-0.003 2.57366,-0.39614 3.5,-0.87304 0.92634,-0.47687 6.80226,-1.15884 13.05664,-1.51563 6.25439,-0.35701 11.78773,-0.90543 12.29493,-1.21875 0.1268,-0.0784 0.28717,-0.11966 0.4707,-0.12695 z"
       style="fill:#000000;stroke-width:3.77952766" />
  </g>
</svg>
