<?xml version="1.0" encoding="UTF-8" standalone="no"?>
<svg
   xmlns:dc="http://purl.org/dc/elements/1.1/"
   xmlns:cc="http://creativecommons.org/ns#"
   xmlns:rdf="http://www.w3.org/1999/02/22-rdf-syntax-ns#"
   xmlns:svg="http://www.w3.org/2000/svg"
   xmlns="http://www.w3.org/2000/svg"
   id="svg8"
   version="1.1"
   viewBox="0 0 189.73001 63.045578"
   height="63.045578mm"
   width="189.73001mm">
  <defs
     id="defs2" />
  <metadata
     id="metadata5">
    <rdf:RDF>
      <cc:Work
         rdf:about="">
        <dc:format>image/svg+xml</dc:format>
        <dc:type
           rdf:resource="http://purl.org/dc/dcmitype/StillImage" />
        <dc:title></dc:title>
      </cc:Work>
    </rdf:RDF>
  </metadata>
  <g
     transform="translate(-17.222721,-130.92995)"
     id="layer1">
    <path
       id="path826"
       transform="scale(0.26458333)"
       d="m 254.02148,494.85352 c -1.95768,0.0135 -3.82721,0.83285 -5.52539,2.44726 -1.59588,1.51722 -1.95136,3.57235 -2.22851,12.90234 -0.18132,6.10424 -0.77371,11.92928 -1.31641,12.94336 -0.54264,1.01401 -0.80169,2.02827 -0.57617,2.25391 0.22553,0.22553 -0.75501,3.54657 -2.17969,7.38086 -1.42467,3.83426 -2.6816,8.32067 -2.79101,9.9707 -0.19094,2.87974 -0.57051,4.2427 -2.5918,9.29688 -0.50526,1.26338 -0.91797,3.53666 -0.91797,5.05078 0,1.51412 -0.4408,3.19275 -0.97851,3.73047 -0.95636,0.95637 -2.0994,6.44023 -2.38086,11.42187 -0.0777,1.37503 -0.70313,2.86096 -1.39063,3.30078 -0.6875,0.43983 -1.25,1.91814 -1.25,3.28516 0,1.36702 -0.68651,3.53219 -1.52539,4.8125 -1.72675,2.63535 -4.81126,16.24998 -3.98437,17.58789 0.29764,0.48163 0.12985,1.13117 -0.375,1.44336 -0.50487,0.312 -1.24412,3.36291 -1.64063,6.7793 -0.39651,3.41635 -1.05401,6.90485 -1.46289,7.75195 -1.1061,2.2916 -3.00567,7.90671 -4.55469,13.4707 -0.75514,2.71242 -2.23647,6.76241 -3.29297,9 -2.64091,5.59325 -6.1643,16.60295 -6.16406,19.25977 1.2e-4,1.20506 -0.45,2.46881 -1,2.80859 -0.55,0.33993 -1.01386,1.60357 -1.03125,2.8086 -0.0175,1.20506 -0.6925,3.06521 -1.5,4.13281 -0.80751,1.0676 -1.47644,3.76762 -1.48437,6 -0.0169,4.64413 -1.91305,9.05859 -3.89063,9.05859 -1.52324,0 -6.28158,-16.84466 -5.4043,-19.13086 0.29404,-0.76626 0.0851,-1.95035 -0.46289,-2.63086 -0.95412,-1.18476 -2.26806,-6.00063 -2.79492,-10.23828 -0.13676,-1.09999 -0.57643,-4.69998 -0.97656,-8 -0.40014,-3.29998 -1.2098,-6.9 -1.79883,-8 -0.99247,-1.85348 -1.95907,-7.35553 -3.25195,-18.5 -0.28712,-2.47498 -0.77855,-5.17496 -1.0918,-6 -0.31324,-0.82499 -0.67632,-2.4 -0.80664,-3.5 -0.13033,-1.09999 -0.98416,-5.14998 -1.89648,-9 -0.91232,-3.84997 -1.85387,-7.9 -2.09375,-9 -0.23988,-1.09999 -0.9279,-4.02497 -1.52735,-6.5 -0.59943,-2.47498 -1.20714,-5.27724 -1.35156,-6.22851 -0.14443,-0.95131 -0.57134,-2.04002 -0.94922,-2.41797 -0.37788,-0.37784 -0.6875,-1.46589 -0.6875,-2.41992 0,-0.95399 -1.61273,-2.68654 -3.58398,-3.84961 -3.08281,-1.8189 -4.13181,-1.96752 -7.5,-1.06055 -2.15375,0.57993 -3.91602,1.402 -3.91602,1.82617 0,0.71225 -4.43553,6.38569 -11.94141,15.27344 -1.68216,1.99189 -3.06145,4.01686 -3.06445,4.5 -0.003,0.48314 -1.24004,2.22692 -2.75,3.87695 -1.50995,1.64999 -3.75207,5.13748 -4.98242,7.75 -1.23035,2.61249 -2.67964,4.75 -3.22266,4.75 -0.54303,0 -1.72344,1.42039 -2.62109,3.15625 -0.89766,1.7359 -2.0413,3.64838 -2.54297,4.25 -0.50167,0.60167 -1.82971,2.20632 -2.95117,3.56446 -1.12147,1.35817 -3.17377,4.73316 -4.56055,7.5 -1.38678,2.76684 -3.11696,5.7043 -3.84375,6.52929 -0.72678,0.825 -1.97041,3.07498 -2.76562,5 -0.79521,1.92499 -2.63392,4.62497 -4.08399,6 -1.45006,1.375 -2.64251,2.99467 -2.65234,3.59766 -0.0261,1.65642 -3.00999,7.507 -5.63672,11.05469 -1.283357,1.73333 -3.280494,5.55776 -4.439452,8.49804 -4.635451,11.76027 -5.85635,10.2257 -5.914063,-7.43554 -0.06617,-20.24504 -0.768752,-36.66847 -2.064453,-48.21485 -0.617189,-5.5 -1.2707,-13.69183 -1.451172,-18.20507 -0.18048,-4.51329 -0.85411,-9.80277 -1.498047,-11.75391 -0.643922,-1.95118 -0.877389,-4.88708 -0.517578,-6.52539 0.359841,-1.63835 0.171793,-6.25074 -0.417969,-10.24805 -0.589761,-3.99726 -1.222943,-12.02411 -1.40625,-17.83789 -0.183311,-5.81374 -0.703824,-11.17106 -1.158203,-11.90625 -0.454394,-0.73519 -0.74934,-3.3515 -0.65625,-5.8125 0.09309,-2.46104 -0.332021,-5.07587 -0.943359,-5.8125 -0.61135,-0.73663 -0.955332,-3.60294 -0.763672,-6.36914 0.29489,-4.25628 0.08056,-5.02983 -1.400391,-5.0293 -0.962498,3.4e-4 -1.75,-0.675 -1.75,-1.5 0,-1.9525 -4.198079,-1.96515 -7.949219,-0.0254 -2.357529,1.21913 -2.851562,2.11577 -2.851562,5.1875 0,2.04261 0.555564,4.64119 1.234375,5.77539 0.678822,1.1342 1.327453,4.98752 1.441406,8.5625 0.113938,3.57502 0.658171,7.91491 1.208985,9.64453 0.550798,1.72967 1.129994,8.73554 1.287109,15.56836 0.157141,6.83278 0.583562,12.90567 0.947266,13.49414 0.3637,0.58851 0.905286,7.30758 1.205078,14.93164 0.299781,7.62407 0.750728,18.58637 1.001953,24.36133 0.25121,5.77501 0.641108,16.35001 0.865234,23.5 0.224096,7.15 0.468286,13 0.542969,13 0.24158,0 1.313021,44.82518 1.205078,50.41797 -0.05753,2.97989 0.348035,5.9649 0.902344,6.63281 0.554302,0.66788 1.000439,2.50484 0.990234,4.08204 -0.03265,5.12413 0.581023,8.03367 2.039063,9.67773 0.786599,0.88694 2.795769,1.62967 4.466797,1.65234 2.375093,0.0298 3.812585,-0.89053 6.583984,-4.21289 1.94987,-2.33752 3.862964,-5.60001 4.251953,-7.25 0.388993,-1.65003 2.120647,-6.26252 3.847656,-10.25 2.248956,-5.19265 3.655966,-7.25 4.958986,-7.25 1.0006,0 1.82031,-0.44996 1.82031,-1 0,-0.54999 -0.71217,-1 -1.58203,-1 -1.34311,0 -1.26772,-0.50695 0.5,-3.36718 1.14486,-1.85243 2.08203,-3.85889 2.08203,-4.45704 0,-0.59814 1.125,-2.74531 2.5,-4.77148 1.375,-2.02617 2.5,-3.08053 2.5,-2.34375 0,1.1122 0.21267,1.1152 1.25,0.0156 0.93499,-0.9911 0.95389,-1.43466 0.0781,-1.75781 -0.87824,-0.32398 -0.84667,-1.10492 0.12304,-3.125 0.71103,-1.48119 2.7073,-5.61838 4.43555,-9.19336 1.72825,-3.57501 3.13489,-7.0467 3.12695,-7.71484 -0.008,-0.66818 0.83138,-1.66738 1.86524,-2.2207 1.03386,-0.55329 2.60549,-2.81911 3.49218,-5.03516 0.88669,-2.21605 2.06665,-4.0293 2.6211,-4.0293 0.55446,0 1.00781,-0.59511 1.00781,-1.32422 0,-0.7291 1.125,-2.38405 2.5,-3.67578 1.375,-1.29176 2.5,-2.88898 2.5,-3.55078 0,-0.66176 0.675,-1.76452 1.5,-2.44922 0.825,-0.6847 1.5,-1.91769 1.5,-2.74023 0,-0.82258 1.2375,-2.99993 2.75,-4.83984 5.29457,-6.44058 7.22098,-9.21118 8.20703,-11.80469 0.54673,-1.438 1.43098,-2.61524 1.9668,-2.61524 0.53583,0 3.08339,-2.95345 5.66016,-6.56445 2.57677,-3.61104 5.05086,-6.19852 5.49804,-5.75 0.44718,0.44852 0.98453,2.50141 1.19532,4.5625 0.21076,2.06109 0.68464,4.04789 1.05273,4.41602 0.36808,0.36808 0.66992,1.62941 0.66992,2.80273 0,1.17335 0.42331,2.5615 0.94141,3.08398 1.01185,1.02044 2.81875,10.53264 3.6875,19.41797 0.29404,3.00749 0.90304,6.15751 1.35351,7 0.45049,0.84254 0.87349,3.10626 0.94141,5.03125 0.1533,4.34771 0.52939,6.91961 1.39062,9.51172 0.89731,2.7007 1.66954,7.47846 2.66602,16.48828 0.45622,4.12502 1.73556,10.32629 2.8418,13.7793 1.10623,3.45301 2.32252,8.17805 2.70312,10.5 0.3806,2.32199 1.26874,4.89571 1.97266,5.7207 0.70391,0.82504 1.58351,2.93218 1.95508,4.68164 0.37155,1.74951 1.32168,3.71772 2.11132,4.37305 0.78965,0.65533 1.43555,1.95203 1.43555,2.88281 0,2.08676 5.9611,5.0625 10.14063,5.0625 2.0943,0 3.70411,-0.80343 5.05859,-2.52539 2.81191,-3.57475 6.94204,-11.55506 7.2207,-13.95117 0.12942,-1.11284 1.19319,-3.88126 2.36524,-6.15234 1.17206,-2.27108 2.58181,-6.9282 3.13281,-10.34961 0.551,-3.42142 1.41428,-6.73859 1.91797,-7.3711 0.50369,-0.6325 1.60308,-3.4004 2.44336,-6.15039 0.84028,-2.75002 2.49092,-7.47498 3.66797,-10.5 1.17704,-3.02498 2.33472,-7.62569 2.57226,-10.22461 0.23755,-2.59891 0.83836,-5.5239 1.33399,-6.5 1.56699,-3.08602 3.14648,-8.82419 3.14648,-11.42968 0,-1.38176 0.32982,-2.84349 0.73438,-3.24805 0.40456,-0.40456 0.80443,-2.0744 0.88671,-3.71094 0.0823,-1.63653 0.8165,-3.74161 1.63282,-4.67969 1.50817,-1.7331 2.00681,-3.41076 3.92968,-13.20703 0.59378,-3.02498 1.41799,-5.72485 1.83204,-6 0.41405,-0.275 0.98799,-2.52501 1.27539,-5 0.67348,-5.79964 2.46273,-13.80104 3.42383,-15.3164 1.16045,-1.82967 6.30278,-21.47745 7.36328,-28.13282 0.52139,-3.27205 1.32766,-6.19688 1.79101,-6.5 0.84267,-0.55094 2.62815,-7.84866 2.28516,-9.33984 -0.1,-0.4348 0.29779,-1.68614 0.88281,-2.7793 1.25463,-2.34429 2.96289,-1.65935 2.96289,1.1875 0,2.27324 6.80596,10.88086 8.60352,10.88086 0.64969,0 1.44124,0.67501 1.75781,1.5 0.31658,0.825 1.26515,1.5 2.10742,1.5 2.07867,0 2.00514,-4.63509 -0.0918,-5.80859 -0.89205,-0.4992 -1.76699,-1.98321 -1.94531,-3.29883 -0.63618,-4.69391 -1.33915,-6.92055 -2.875,-9.11328 -0.85673,-1.22313 -1.55664,-3.29158 -1.55664,-4.5957 0,-1.50724 -0.70772,-2.55576 -1.94336,-2.87891 -2.2756,-0.59505 -2.86424,-3.26384 -1.92773,-8.74805 0.8784,-5.14401 -0.33499,-8.10141 -4.31446,-10.52148 -1.58981,-0.96683 -3.16485,-1.44413 -4.6875,-1.43359 z m 507.95704,12.54882 c -2.09851,0.047 -4.14193,0.30113 -5.43555,0.79297 -1.48502,0.56459 -3.65038,1.91136 -4.81055,2.99219 -1.16016,1.08087 -3.3443,2.23652 -4.85547,2.56836 -1.5112,0.33192 -4.48823,2.05148 -6.61523,3.82226 -2.12697,1.77079 -5.4422,4.39279 -7.36719,5.82618 -3.98661,2.96848 -6.81726,5.74284 -16,15.68164 -3.57502,3.86936 -8.86248,9.58137 -11.75,12.69336 -2.88748,3.11198 -5.25,6.08647 -5.25,6.60937 0,0.52286 -1.14689,2.16776 -2.54883,3.65625 -2.80656,2.97974 -8.45117,14.36152 -8.45117,17.04102 0,0.93226 -0.9232,3.41768 -2.05078,5.52148 -2.82807,5.27652 -2.58614,17.46516 0.45313,22.85352 2.83354,5.02359 8.90129,12.15756 12.99414,15.27929 3.06893,2.34082 10.32874,4.97879 16.60351,6.03321 1.37499,0.23104 4.52502,0.7824 7,1.22461 2.47499,0.44231 10.80001,0.70694 18.5,0.58789 8.53255,-0.13179 15.17158,0.22595 17,0.91601 3.91332,1.477 7.45975,4.79574 7.48242,7 0.01,0.9625 0.46758,1.75 1.01758,1.75 0.55004,0 1,0.91808 1,2.04102 0,2.37483 -5.49737,14.52972 -6.98828,15.45117 -0.55627,0.34379 -1.01172,1.53929 -1.01172,2.65625 0,1.11693 -1.09142,3.22831 -2.42578,4.69141 -1.33436,1.46309 -4.73433,5.57592 -7.55469,9.14062 -7.11617,8.99414 -12.50128,14.59992 -16.02539,16.68164 -1.64746,0.97319 -2.99414,2.11296 -2.99414,2.53321 0,1.18612 -7.94915,4.95441 -9.03515,4.2832 -0.53114,-0.32825 -0.96485,-1.13928 -0.96485,-1.80274 0,-0.66342 -2.22825,-1.99773 -4.95117,-2.96484 -3.98234,-1.4143 -6.86764,-1.64475 -14.75,-1.18164 -16.09663,0.94571 -15.77738,0.83175 -18.18555,6.42969 -1.16201,2.70115 -2.11328,5.12757 -2.11328,5.39062 0,1.1571 9.80321,9.77495 12.69727,11.16211 1.7582,0.84272 6.48319,1.90704 10.5,2.36524 4.0168,0.45845 9.10274,0.61449 11.30273,0.34765 4.08114,-0.49493 14.45198,-5.55192 20.18359,-9.84179 1.75083,-1.31044 3.52729,-2.38282 3.94727,-2.38282 0.72673,0 13.34678,-12.89882 18.12305,-18.52343 1.23923,-1.45939 2.50409,-3.65826 2.8125,-4.88672 0.30833,-1.22846 1.89095,-3.01882 3.51562,-3.97852 1.62463,-0.95973 2.74498,-2.08194 2.49024,-2.49414 -0.56769,-0.91854 4.31744,-8.4354 7.27148,-11.1875 1.1856,-1.10457 2.15625,-2.89019 2.15625,-3.96875 0,-1.07856 0.41366,-1.96094 0.91992,-1.96094 0.99183,0 1.84273,-3.13777 2.57422,-9.5 0.25293,-2.19998 0.87212,-5.68751 1.37695,-7.75 0.50472,-2.06249 0.56027,-3.75 0.12305,-3.75 -0.43721,0 -1.31388,-2.13751 -1.94922,-4.75 -1.26402,-5.19772 -4.79473,-9.64931 -10.11328,-12.75 -3.07389,-1.79195 -5.35508,-2.00978 -21.93164,-2.10351 -10.17502,-0.0575 -20.29997,-0.57545 -22.5,-1.15039 -2.19999,-0.57494 -4.71537,-1.01631 -5.58984,-0.97852 -5.42181,0.22689 -20.62313,-11.43336 -19.66797,-15.08594 0.37954,-1.45133 0.1348,-1.88003 -0.85547,-1.5 -0.912,0.34995 -1.38672,-0.1886 -1.38672,-1.57421 0,-1.15888 0.48635,-2.10743 1.08008,-2.10743 0.67729,0 0.83575,-1.10816 0.42578,-2.97461 -0.43623,-1.98629 -0.1309,-3.72241 0.91992,-5.22265 0.8657,-1.23598 1.57422,-3.65457 1.57422,-5.37305 0,-1.71847 0.90001,-4.16139 2,-5.42969 1.09999,-1.26833 2,-2.65547 2,-3.08203 0,-0.42656 0.57126,-1.3689 1.26953,-2.0957 0.69827,-0.72677 2.6951,-3.28443 4.4375,-5.6836 1.7424,-2.39916 4.09616,-5.0121 5.23047,-5.80664 1.13431,-0.79449 2.0625,-1.82523 2.0625,-2.28906 0,-1.18201 16.12204,-16.91368 21.05274,-20.54297 2.24167,-1.65003 6.51387,-5.1258 9.49414,-7.72461 3.23557,-2.82141 6.01256,-4.49886 6.89062,-4.16211 0.80878,0.31038 2.4904,-0.14938 3.73828,-1.02343 3.68024,-2.57775 5.82422,-2.05911 5.82422,1.41015 0,1.64999 0.50625,3 1.125,3 0.70398,0 0.91223,1.06773 0.55469,2.85352 -0.31748,1.5874 -0.063,3.36273 0.57422,4 0.86078,0.8612 0.85872,1.14648 -0.008,1.14648 -1.79402,0 -4.74332,6.90316 -3.48632,8.16016 1.28776,1.28776 6.22619,-3.31937 8.04882,-7.50977 0.68179,-1.56748 2.08809,-3.07238 3.125,-3.34375 1.40493,-0.3674 1.83371,-1.29752 1.68555,-3.65039 -0.10934,-1.73639 0.16378,-3.66153 0.60742,-4.27929 0.45419,-0.63239 -0.0424,-2.81729 -1.13867,-5 -1.07093,-2.13222 -2.21887,-5.13389 -2.54883,-6.66993 -0.32995,-1.53607 -1.37226,-3.07649 -2.31836,-3.42382 -0.94612,-0.34749 -2.0358,-1.14798 -2.41992,-1.77735 -0.57149,-0.93647 -4.21929,-1.43379 -7.71679,-1.35547 z m -318.44141,3.99414 c -1.10341,-0.0204 -1.89891,0.16002 -2.50586,0.53907 -0.9363,0.58473 -3.10398,1.37003 -4.81641,1.74609 -1.71239,0.37614 -3.9038,1.55814 -4.87109,2.62695 -0.96726,1.06885 -2.18785,1.94336 -2.71094,1.94336 -1.12006,0 -8.27607,5.37041 -11.46875,8.60743 -1.22604,1.24308 -4.97974,5.55229 -8.34375,9.57617 -6.2414,7.4657 -9.05169,9.71851 -12.20117,9.78125 -2.57405,0.0514 -3.44095,3.32412 -3.71875,14.03515 -0.35259,13.59636 -0.72075,18.06748 -2.54883,31 -0.89408,6.325 -1.36347,13.47197 -1.04297,15.88282 0.46201,3.47372 0.12166,5.13319 -1.64648,7.99414 -2.66347,4.30956 -3.28191,7.79928 -1.71484,9.6875 1.08102,1.30257 0.82325,20.72371 -0.4043,30.43554 -2.08173,16.47028 -2.6814,36.69957 -1.47656,49.81446 0.53348,5.80747 1.13114,7.71385 2.90234,9.25 2.87206,2.49105 4.32729,2.43779 8.02344,-0.29493 l 3.01562,-2.23046 -0.68359,-8.75391 c -0.49622,-6.34352 -0.31979,-9.63454 0.64062,-11.95313 1.0486,-2.53141 1.06481,-3.28641 0.0781,-3.61523 -0.95433,-0.31809 -0.89366,-0.95825 0.26367,-2.72461 1.1737,-1.79104 1.24188,-2.53503 0.30078,-3.31641 -1.23088,-1.0219 -1.28352,-6.94289 -0.14648,-16.67578 0.64505,-5.52162 1.38302,-19.82827 1.48242,-28.75 0.0411,-3.69713 0.49042,-5.78403 1.25781,-5.84375 8.8667,-0.68897 15.74701,1.18248 21.52149,5.85352 2.3803,1.92548 6.50607,5.00155 9.16992,6.83398 2.66388,1.83243 6.66204,5.11225 8.88281,7.28907 2.22078,2.17678 6.90569,6.00569 10.41211,8.50781 3.58764,2.5601 8.2963,7.18456 10.76758,10.57812 2.41531,3.31677 4.76634,6.03125 5.22461,6.03125 0.45808,0 0.59004,0.39421 0.29297,0.875 -0.29715,0.48083 0.50816,2.00645 1.79101,3.39063 1.28281,1.38421 2.62123,3.12748 2.97461,3.875 1.22052,2.58187 3.16245,5.33728 4.90625,6.96289 0.96253,0.89726 1.75,2.05328 1.75,2.56836 0,0.51511 1.59495,2.48302 3.54492,4.37305 1.95001,1.88999 5.20829,6.0024 7.24024,9.14062 2.03198,3.13826 4.56348,5.93314 5.625,6.21094 1.27706,0.33396 3.5415,-0.84352 6.69336,-3.48242 l 4.76367,-3.98829 -1.52344,-3.71289 c -0.83735,-2.04196 -3.05759,-5.30766 -4.93359,-7.25586 -1.87601,-1.94819 -3.41016,-4.04753 -3.41016,-4.66601 0,-0.61848 -0.38798,-1.27373 -0.86133,-1.45703 -0.47334,-0.18331 -2.74908,-2.52734 -5.05664,-5.20899 L 486.78125,678 l 2.13867,-2.27539 c 2.53954,-2.70319 2.30084,-6.31272 -0.52148,-7.87109 -3.65375,-2.0174 -9.50391,-6.75631 -9.50391,-7.69922 0,-1.11311 -6.13093,-6.8311 -7.36914,-6.87305 -0.47739,-0.0161 -2.36612,-1.26681 -4.19727,-2.7793 -1.8311,-1.51249 -5.19303,-4.10001 -7.47265,-5.75 -2.27966,-1.65003 -5.17475,-3.93892 -6.43359,-5.08593 -4.42938,-4.03594 -11.24227,-9.41407 -11.92383,-9.41407 -0.64339,0 -1.85673,-0.89091 -4.9375,-3.62109 -0.69532,-0.61618 -2.70423,-1.86494 -4.46485,-2.77539 -3.87904,-2.00595 -3.98856,-2.96492 -0.60547,-5.30664 2.87392,-1.98924 23.32357,-22.17494 27.6543,-27.29688 1.51253,-1.78885 2.75,-3.82251 2.75,-4.51953 0,-0.69702 0.67501,-1.52507 1.5,-1.8418 0.82503,-0.31661 1.5,-1.64612 1.5,-2.95312 0,-1.30704 0.89997,-3.19006 2,-4.18555 1.09999,-0.99549 2,-2.6134 2,-3.5957 0,-0.9823 0.49544,-2.09225 1.10156,-2.4668 1.35096,-0.83493 4.22428,-7.20482 4.48243,-9.9375 0.24302,-2.57454 2.67232,-8.82128 3.73437,-9.60156 0.45041,-0.33078 0.64279,-5.29782 0.42773,-11.03711 -0.34518,-9.21528 -0.73286,-11.07094 -3.31835,-15.87695 -1.61027,-2.99316 -3.83363,-5.9011 -4.94141,-6.46289 -1.10778,-0.56175 -3.63697,-2.03399 -5.61914,-3.27149 -2.1961,-1.37106 -5.18876,-2.25 -7.66016,-2.25 -2.2306,0 -6.37474,-0.53476 -9.21094,-1.18945 -1.83851,-0.42431 -3.2501,-0.64558 -4.35351,-0.66602 z m 97.96094,8.68164 c -0.8012,-0.0797 -1.54384,0.26825 -2.10352,1.17383 -0.33993,0.55004 -1.44441,1 -2.45312,1 -1.00872,0 -2.16616,0.78751 -2.57227,1.75 -0.40611,0.9625 -0.83766,11.65 -0.95898,23.75 -0.12144,12.10001 -0.59545,24.02502 -1.05274,26.5 -0.45732,2.47503 -0.85869,7.31252 -0.89648,10.75 -0.0365,3.43752 -0.34174,6.25 -0.67774,6.25 -0.58896,0 -1.26225,5.01916 -2.44922,18.25 -0.89385,9.96382 -1.16617,10.54531 -8.22656,17.59375 -3.69222,3.68599 -8.45989,8.86527 -10.5957,11.50977 -3.81491,4.72343 -3.86119,4.87819 -2.58594,8.74219 1.84539,5.59158 2.8329,6.13084 8.73047,4.76953 7.93939,-1.83266 8.00689,-1.73382 7.59961,11.29883 -0.19484,6.23478 -0.87334,17.86094 -1.50781,25.83593 -0.63459,7.97503 -1.05089,20.35001 -0.92578,27.5 0.21018,12.00329 0.39241,13.13322 2.39843,14.72852 3.07714,2.44713 5.9583,2.17967 8.54297,-0.79297 2.06181,-2.3715 2.23458,-3.58027 2.28711,-16.00781 0.0312,-7.39299 0.45517,-13.68781 0.94141,-13.98828 0.48642,-0.30051 0.79641,-8.734 0.68945,-18.74219 -0.13757,-12.88611 0.16655,-18.85122 1.04102,-20.43945 l 1.23437,-2.24415 3.94922,2.49415 c 2.17187,1.37098 4.54164,2.49218 5.26758,2.49218 0.72593,0 1.74701,0.39604 2.26953,0.87891 0.52248,0.48291 3.65119,2.34721 6.95117,4.14453 3.30002,1.79728 6.33244,3.82759 6.73828,4.51172 0.40589,0.68413 3.78087,2.70277 7.5,4.48633 3.71913,1.78352 7.95614,4.0842 9.41602,5.11133 1.45992,1.02712 3.23562,1.86718 3.94726,1.86718 0.71169,0 4.26751,1.99423 7.90039,4.43164 3.63292,2.43742 7.79928,4.73105 9.25977,5.09766 1.46049,0.36654 3.17566,1.29362 3.81055,2.05859 0.63488,0.76498 1.54323,1.1499 2.01953,0.85547 0.83474,-0.5159 4.88134,1.18966 5.9082,2.49024 0.275,0.34828 3.74575,2.54123 7.71289,4.87304 3.96715,2.33186 7.56713,4.84116 8,5.57813 0.98563,1.67818 13.74698,7.61523 16.36914,7.61523 1.06908,0 2.9516,-0.5625 4.18164,-1.25 1.23001,-0.68749 2.38865,-1.32619 2.57422,-1.41992 0.18561,-0.0939 0.71497,-1.85063 1.17774,-3.90234 0.78024,-3.45956 0.57377,-3.99578 -2.83789,-7.39649 -2.02334,-2.01683 -6.15272,-4.92437 -9.17774,-6.46093 -3.02498,-1.53657 -6.19145,-3.40142 -7.03515,-4.14258 -0.84371,-0.74117 -4.06493,-2.46602 -7.15821,-3.83399 -3.09324,-1.368 -5.90896,-2.94923 -6.25781,-3.51367 -0.34885,-0.56443 -4.42038,-2.85034 -9.04883,-5.08008 -4.62848,-2.22973 -8.68687,-4.4922 -9.01758,-5.02734 -0.33071,-0.53514 -1.66744,-0.97266 -2.9707,-0.97266 -1.30326,0 -3.15661,-0.7875 -4.11914,-1.75 -0.9625,-0.96249 -2.00781,-1.77237 -2.32227,-1.79883 -1.15203,-0.0978 -12.68102,-6.33607 -16.36523,-8.85546 -2.0869,-1.42712 -4.44942,-2.59571 -5.25,-2.59571 -0.80058,0 -1.45508,-0.44996 -1.45508,-1 0,-0.54999 -0.36696,-1 -0.81445,-1 -0.97206,0 -25.6351,-13.74114 -29.17969,-16.25781 -2.24957,-1.59734 -2.44847,-2.32723 -2.16992,-7.94531 0.24605,-4.96403 0.83499,-6.82539 2.98437,-9.41992 1.47315,-1.77823 3.0362,-3.26501 3.47266,-3.30469 1.46147,-0.13297 8.62767,-7.30427 8.41602,-8.42188 -0.11502,-0.60691 0.80363,-1.25671 2.04101,-1.44531 1.30643,-0.19933 3.52677,-2.20266 5.29688,-4.77539 1.67652,-2.43677 3.5141,-4.42969 4.08398,-4.42969 0.56984,0 4.71188,-3.57855 9.20313,-7.95312 20.04098,-19.52062 26.99507,-26.04688 27.75586,-26.04688 0.44904,0 2.99495,-2.00768 5.6582,-4.46093 9.62721,-8.86817 12.97654,-10.72602 22.01562,-12.22071 2.94917,-0.48767 3.36755,-0.24116 4.34766,2.57031 0.98483,2.82509 2.88867,4.32222 2.88867,2.27149 0,-0.46171 1.09932,-1.34073 2.44336,-1.95313 2.57412,-1.17282 2.62896,-1.66345 1.09375,-9.93359 -0.94647,-5.09862 -5.05726,-8.6492 -11.11523,-9.60156 -3.42036,-0.53768 -5.15957,-0.0878 -10.77735,2.78906 -3.68402,1.88663 -8.43637,5.1421 -10.56054,7.23438 -4.94022,4.86599 -6.7608,6.30468 -7.98438,6.30468 -0.54164,0 -6.31683,5.2875 -12.83398,11.75 -13.98206,13.86486 -20.8739,19.75 -23.12696,19.75 -1.27355,0 -1.76513,-1.33825 -2.20703,-6 -0.31287,-3.30002 -0.72433,-6.45 -0.91406,-7 -0.18988,-0.54999 0.007,-2.25637 0.4375,-3.79101 0.56591,-2.01774 0.33252,-3.28485 -0.83789,-4.57813 -0.89019,-0.98366 -1.61909,-2.2023 -1.6211,-2.70898 -0.002,-0.50672 -0.99382,-2.49685 -2.20312,-4.42188 -1.20926,-1.92499 -2.25707,-3.72485 -2.32812,-4 -1.19029,-4.61076 -2.15481,-7.39871 -4.11329,-11.875 -1.29327,-2.95597 -2.36586,-7.23092 -2.38476,-9.5 -0.036,-4.46831 -2.95971,-8.55987 -5.36328,-8.79883 z m -91.82422,6.21094 c 4.18077,-0.0644 8.03834,0.61655 9.91992,2.14844 2.00391,1.63147 5.06789,9.04103 5.73437,13.86719 0.75009,5.43156 -0.89419,14.16828 -3.53124,18.7539 -1.04603,1.81894 -1.90235,4.18146 -1.90235,5.25 0,1.06855 -0.45619,1.94336 -1.01367,1.94336 -0.91673,0 -5.98633,9.83505 -5.98633,11.61328 0,0.40717 -2.81252,3.54634 -6.25,6.97657 -3.43752,3.43018 -8.27907,8.43211 -10.75976,11.11523 -4.29827,4.64901 -15.10658,13.29492 -16.61915,13.29492 -0.39269,0 -1.42466,0.63755 -2.29296,1.41602 -3.71675,3.33214 -10.68247,2.71248 -13.82813,-1.23047 -1.47076,-1.84346 -1.65631,-8.55627 -0.30664,-11.07812 0.51851,-0.96889 1.23217,-7.08683 1.58594,-13.59571 0.35388,-6.50891 1.04229,-12.88777 1.53125,-14.17383 0.88218,-2.32029 2.93945,-3.25638 2.93945,-1.33789 0,0.55 1.12497,1 2.5,1 3.13965,0 3.28551,-2.33635 0.27735,-4.44336 -1.22227,-0.85617 -1.67238,-1.55664 -1,-1.55664 0.67237,0 1.22265,-0.8785 1.22265,-1.95117 0,-1.0727 0.73773,-2.3619 1.64063,-2.86719 1.11602,-0.62434 1.48034,-1.76272 1.13867,-3.55078 -0.27663,-1.44703 -0.0851,-2.63086 0.42383,-2.63086 0.50891,0 0.78405,-1.44711 0.61132,-3.21679 -0.26075,-2.67221 0.1517,-3.44434 2.43555,-4.55469 1.91501,-0.93101 2.75,-2.10094 2.75,-3.84961 0,-3.26997 1.69682,-6.37891 3.48242,-6.37891 0.7773,0 2.62768,-1.125 4.11133,-2.5 1.48365,-1.37499 3.02244,-2.5 3.41797,-2.5 0.39553,0 1.99606,-1.0125 3.55859,-2.25 2.92453,-2.31619 8.83371,-3.63003 14.20899,-3.71289 z m -110.68555,9.06055 c -5.37869,-0.2106 -11.09375,1.34729 -11.09375,3.02344 0,0.48329 -0.5945,0.8789 -1.32031,0.8789 -0.72582,0 -2.23745,1.01251 -3.35938,2.25 -1.12193,1.2375 -3.38899,3.38977 -5.03711,4.78321 -2.94331,2.48847 -3.0126,2.49689 -3.89062,0.5039 -0.49165,-1.11602 -2.17801,-2.63916 -3.74805,-3.38672 -4.43458,-2.11135 -9.90623,0.74433 -12.66406,6.61133 -1.33123,2.83208 -1.76519,4.85395 -1.16992,5.44922 0.59528,0.59528 0.0646,1.89917 -1.43164,3.51367 -1.30846,1.41185 -2.37891,3.31646 -2.37891,4.23242 0,0.91597 -0.98694,2.72463 -2.19336,4.01954 -1.41349,1.51721 -2.1605,3.54094 -2.09961,5.68945 0.052,1.83379 -0.26141,3.33398 -0.69726,3.33398 -1.02771,0 -4.00977,7.45119 -4.00977,10.01953 0,1.08885 -0.63077,1.98047 -1.40039,1.98047 -0.90462,0 -1.56805,1.50244 -1.87695,4.25 -0.2628,2.33749 -1.46413,7.85003 -2.66992,12.25 -4.44454,16.21837 -4.95641,19.63107 -5.55274,37 -0.20771,6.05001 -0.61993,15.3862 -0.91601,20.7461 -0.34233,6.19631 -0.12599,10.74849 0.59375,12.5 0.6226,1.5151 1.20217,5.00392 1.28906,7.7539 0.19447,6.15338 6.41893,19.64064 9.79883,21.23243 1.22861,0.5786 3.74982,1.72381 5.60156,2.54492 5.82229,2.58172 12.76039,1.96554 20.75976,-1.8418 9.11774,-4.33962 17.27196,-12.75529 27.64258,-28.5293 3.10765,-4.72683 6.34238,-9.17001 7.18946,-9.87304 0.84707,-0.703 1.54101,-2.19935 1.54101,-3.32618 0,-1.12686 0.68106,-2.80264 1.51367,-3.72265 1.77544,-1.96184 7.48633,-12.89906 7.48633,-14.33789 0,-0.54354 0.74326,-1.80993 1.65235,-2.81446 1.7133,-1.89316 4.47352,-8.77882 6.89453,-17.19726 0.76959,-2.67606 1.89526,-5.46275 2.5,-6.19141 0.60471,-0.72865 0.99034,-2.13751 0.85742,-3.13281 -0.1329,-0.9953 0.22638,-2.93552 0.79883,-4.31055 3.18321,-7.64606 3.73388,-11.01173 3.52343,-21.5 -0.29318,-14.60995 -2.37683,-26.82277 -5.61523,-32.89843 -1.43615,-2.69443 -2.61133,-5.50379 -2.61133,-6.24219 0,-0.73845 -0.9,-1.90483 -2,-2.5918 -1.1,-0.68697 -2,-1.73052 -2,-2.32031 0,-1.76648 -5.19681,-5.99337 -10,-8.13281 -2.475,-1.10245 -6.93277,-2.10039 -9.90625,-2.2168 z m -1.5332,14.36914 c 1.84355,-0.0138 3.64818,0.89587 4.75,2.66016 0.64367,1.03067 1.75573,1.87304 2.4707,1.87304 1.71246,0 7.21875,4.09867 7.21875,5.37305 0,0.54792 0.8685,2.82439 1.93164,5.06055 2.25977,4.75306 5.06836,20.22712 5.06836,27.92968 0,5.61506 -3.48045,21.45001 -5.07422,23.08594 -0.50902,0.52252 -0.92578,1.8126 -0.92578,2.86524 0,1.05259 -0.83993,3.54896 -1.86523,5.54882 -1.02529,1.9999 -3.16279,6.55508 -4.75,10.1211 -1.5872,3.56606 -4.34727,8.73013 -6.13477,11.47656 -1.7875,2.74639 -3.25,5.69211 -3.25,6.54492 0,0.85282 -0.9,2.31986 -2,3.26172 -1.1,0.94186 -2,2.3923 -2,3.22266 0,0.8304 -0.36631,1.50976 -0.81445,1.50976 -0.44813,0 -1.68563,1.65103 -2.75,3.66797 -1.06436,2.01698 -2.61055,4.91662 -3.43555,6.44336 -2.55894,4.73556 -17.08039,19.72771 -21.17383,21.86133 -2.13888,1.11485 -3.98685,1.97598 -4.10742,1.91211 -0.12057,-0.0638 -1.11875,-0.30662 -2.21875,-0.53906 -1.1,-0.23263 -2.96745,-0.62713 -4.14844,-0.87696 -2.38375,-0.50437 -6.35156,-6.48174 -6.35156,-9.5664 0,-1.09047 -0.8428,-3.6508 -1.87305,-5.69141 -1.49301,-2.95718 -1.89823,-6.14635 -1.99804,-15.71094 -0.13612,-13.0467 1.51835,-34.95659 2.82812,-37.44726 0.44926,-0.85433 1.0933,-3.80275 1.43164,-6.55274 0.33835,-2.75002 0.77881,-6.35001 0.97852,-8 0.1997,-1.64999 0.83887,-4.125 1.42187,-5.5 0.583,-1.37499 1.64359,-5.34018 2.35547,-8.81054 1.49053,-7.26618 4.46722,-11.34392 3.37891,-4.62891 -0.35117,2.16677 -0.90391,5.06446 -1.22656,6.43945 -0.32259,1.375 -0.48679,3.96341 -0.36524,5.75196 0.1487,2.18796 -0.29458,3.45029 -1.35547,3.85742 -1.71496,0.65809 -2.20469,4.39062 -0.57617,4.39062 0.55,0 1,0.86187 1,1.91602 0,5.2978 6.20769,0.4374 6.39844,-5.00977 0.0559,-1.59575 0.43906,-2.90331 0.85156,-2.90429 0.41249,-10e-4 0.75,-0.8758 0.75,-1.94336 0,-1.06753 0.4036,-2.18951 0.89649,-2.49414 0.4929,-0.30463 0.80403,-2.35857 0.6914,-4.56446 -0.15472,-3.03023 0.34096,-4.52326 2.0293,-6.10937 1.22902,-1.15453 2.64788,-1.8442 3.1543,-1.53125 1.36744,0.84514 7.20406,-5.26294 7.38476,-7.72852 0.0859,-1.17222 0.30036,-3.25586 0.47656,-4.63086 0.17619,-1.37499 0.39803,-3.4 0.49414,-4.5 0.0961,-1.09999 0.57923,-2.2648 1.07422,-2.58984 0.49499,-0.32489 1.03731,-1.87933 1.20508,-3.45313 0.1678,-1.57375 0.93269,-3.04666 1.69922,-3.27343 1.24326,-0.36764 5.59333,-4.22006 12.39453,-10.97657 1.16859,-1.16092 2.62667,-1.72946 4.06055,-1.74023 z m -27.45117,2.38281 c 0.82266,-0.0545 1.03726,0.9016 -0.0371,2.91406 -0.93535,1.75204 -2.19652,5.3125 -2.20899,6.23633 -0.004,0.275 -0.57398,1.17501 -1.26758,2 -1.67428,1.99147 -4.59784,8.45399 -4.59179,10.15039 0.003,0.74189 -0.7609,3.48713 -1.69727,6.09961 -0.93637,2.61253 -2.01832,4.75 -2.40429,4.75 -0.38597,0 -0.87351,-2.13747 -1.08399,-4.75 -0.40519,-5.02934 0.89561,-9.23085 2.86328,-9.24218 0.65044,-0.004 1.49469,-1.02032 1.875,-2.25782 0.38031,-1.23753 1.53465,-3.0551 2.56641,-4.03906 2.43569,-2.32278 2.36621,-3.16914 -0.37305,-4.49023 -1.39988,-0.67514 -1.68325,-1.11241 -0.75,-1.15625 0.825,-0.0388 2.4,-1.41764 3.5,-3.06446 1.35671,-2.03123 2.78671,-3.09593 3.60938,-3.15039 z m 237.7832,9.15039 c 2.29017,0 3.32085,2.30183 2.49805,5.58008 -0.369,1.47024 -0.17325,2.41992 0.5,2.41992 0.62369,0 1.10937,1.72381 1.10937,3.94141 0,2.16756 0.45,4.21881 1,4.55859 0.55,0.33993 1,2.87131 1,5.625 0,2.75369 0.40802,5.77048 0.9082,6.70508 0.68814,1.2858 0.1163,2.5485 -2.35351,5.18555 -1.7952,1.91675 -4.61097,4.73955 -6.25586,6.27344 -2.67953,2.49872 -3.12752,2.62349 -4.30469,1.20507 -1.06072,-1.27831 -1.08274,-2.68197 -0.11719,-7.28906 0.65768,-3.13814 1.18517,-6.60508 1.17383,-7.70508 -0.0118,-1.10003 0.39994,-3.125 0.91407,-4.5 0.51412,-1.37499 1.15838,-6.77499 1.43164,-12 0.27307,-5.225 0.51859,-9.61242 0.54882,-9.75 0.0294,-0.13719 0.90612,-0.25 1.94727,-0.25 z m -250.39258,58 c -0.86218,0 -1.5,0.90313 -1.5,2.12305 0,1.77324 0.2468,1.91704 1.5,0.87695 0.825,-0.6847 1.5,-1.6404 1.5,-2.12304 0,-0.48265 -0.675,-0.87696 -1.5,-0.87696 z m -1.5,8.5 c -0.73333,0 -1.52085,0.56251 -1.75,1.25 -0.24786,0.74359 0.46111,1.25 1.75,1.25 1.28889,0 1.99786,-0.50641 1.75,-1.25 -0.22917,-0.68749 -1.01667,-1.25 -1.75,-1.25 z m 425.45117,70.9336 c 0.35026,0.0385 0.47244,0.29717 0.32032,0.7539 -0.4983,1.49484 -2.77149,2.31632 -2.77149,1.00196 0,-0.537 0.71299,-1.24988 1.58399,-1.58399 0.36523,-0.14014 0.65703,-0.19495 0.86718,-0.17187 z m -10.625,2.05078 c 0.90501,0.0291 1.76335,0.15234 2.42383,0.39648 1.23727,0.45751 2.92497,0.6385 3.75,0.40039 1.33331,-0.38445 1.33331,-0.31596 0,0.62696 -1.81236,1.28167 -10.66334,1.44656 -11.42578,0.21289 -0.59151,-0.95582 2.53695,-1.72388 5.25195,-1.63672 z"
       style="fill:#000000;stroke-width:3.77952766" />
  </g>
</svg>
